<?xml version="1.0" encoding="UTF-8" standalone="no"?>
<!DOCTYPE svg PUBLIC "-//W3C//DTD SVG 1.1//EN"
 "http://www.w3.org/Graphics/SVG/1.1/DTD/svg11.dtd">
<!-- Generated by graphviz version 14.1.1 (20251213.1925)
 -->
<!-- Title: InheritanceTree Pages: 1 -->
<svg width="584pt" height="1149pt"
 viewBox="0.00 0.00 584.00 1149.00" xmlns="http://www.w3.org/2000/svg" xmlns:xlink="http://www.w3.org/1999/xlink">
<g id="graph0" class="graph" transform="scale(1 1) rotate(0) translate(4 1144.5)">
<title>InheritanceTree</title>
<polygon fill="white" stroke="none" points="-4,4 -4,-1144.5 579.75,-1144.5 579.75,4 -4,4"/>
<text xml:space="preserve" text-anchor="middle" x="287.88" y="-7.2" font-family="Times New Roman,serif" font-size="14.00">simple_container &#45; Inheritance Hierarchy</text>
<!-- SIMPLE_AND_CONDITION -->
<g id="node1" class="node">
<title>SIMPLE_AND_CONDITION</title>
<path fill="none" stroke="black" d="M213.62,-276.5C213.62,-276.5 55.12,-276.5 55.12,-276.5 49.12,-276.5 43.12,-270.5 43.12,-264.5 43.12,-264.5 43.12,-252.5 43.12,-252.5 43.12,-246.5 49.12,-240.5 55.12,-240.5 55.12,-240.5 213.62,-240.5 213.62,-240.5 219.62,-240.5 225.62,-246.5 225.62,-252.5 225.62,-252.5 225.62,-264.5 225.62,-264.5 225.62,-270.5 219.62,-276.5 213.62,-276.5"/>
<text xml:space="preserve" text-anchor="middle" x="134.38" y="-253.45" font-family="Times New Roman,serif" font-size="14.00">SIMPLE_AND_CONDITION</text>
</g>
<!-- SIMPLE_QUERY_CONDITION -->
<g id="node2" class="node">
<title>SIMPLE_QUERY_CONDITION</title>
<path fill="none" stroke="black" d="M563.75,-168.5C563.75,-168.5 388.75,-168.5 388.75,-168.5 382.75,-168.5 376.75,-162.5 376.75,-156.5 376.75,-156.5 376.75,-144.5 376.75,-144.5 376.75,-138.5 382.75,-132.5 388.75,-132.5 388.75,-132.5 563.75,-132.5 563.75,-132.5 569.75,-132.5 575.75,-138.5 575.75,-144.5 575.75,-144.5 575.75,-156.5 575.75,-156.5 575.75,-162.5 569.75,-168.5 563.75,-168.5"/>
<text xml:space="preserve" text-anchor="middle" x="476.25" y="-145.45" font-family="Times New Roman,serif" font-size="14.00">SIMPLE_QUERY_CONDITION</text>
</g>
<!-- SIMPLE_AND_CONDITION&#45;&gt;SIMPLE_QUERY_CONDITION -->
<g id="edge1" class="edge">
<title>SIMPLE_AND_CONDITION&#45;&gt;SIMPLE_QUERY_CONDITION</title>
<path fill="none" stroke="black" d="M225.82,-258.5C300.5,-258.5 393.75,-258.5 393.75,-258.5 393.75,-258.5 393.75,-180.33 393.75,-180.33"/>
<polygon fill="none" stroke="black" points="397.25,-180.33 393.75,-170.33 390.25,-180.33 397.25,-180.33"/>
</g>
<!-- SIMPLE_CURSOR_GUARD -->
<g id="node3" class="node">
<title>SIMPLE_CURSOR_GUARD</title>
<path fill="none" stroke="black" d="M212.5,-348.5C212.5,-348.5 56.25,-348.5 56.25,-348.5 50.25,-348.5 44.25,-342.5 44.25,-336.5 44.25,-336.5 44.25,-324.5 44.25,-324.5 44.25,-318.5 50.25,-312.5 56.25,-312.5 56.25,-312.5 212.5,-312.5 212.5,-312.5 218.5,-312.5 224.5,-318.5 224.5,-324.5 224.5,-324.5 224.5,-336.5 224.5,-336.5 224.5,-342.5 218.5,-348.5 212.5,-348.5"/>
<text xml:space="preserve" text-anchor="middle" x="134.38" y="-325.45" font-family="Times New Roman,serif" font-size="14.00">SIMPLE_CURSOR_GUARD</text>
</g>
<!-- SIMPLE_HASHABLE_LIST_EXTENSIONS -->
<g id="node4" class="node">
<title>SIMPLE_HASHABLE_LIST_EXTENSIONS</title>
<path fill="none" stroke="black" d="M256.75,-420.5C256.75,-420.5 12,-420.5 12,-420.5 6,-420.5 0,-414.5 0,-408.5 0,-408.5 0,-396.5 0,-396.5 0,-390.5 6,-384.5 12,-384.5 12,-384.5 256.75,-384.5 256.75,-384.5 262.75,-384.5 268.75,-390.5 268.75,-396.5 268.75,-396.5 268.75,-408.5 268.75,-408.5 268.75,-414.5 262.75,-420.5 256.75,-420.5"/>
<text xml:space="preserve" text-anchor="middle" x="134.38" y="-397.45" font-family="Times New Roman,serif" font-size="14.00">SIMPLE_HASHABLE_LIST_EXTENSIONS</text>
</g>
<!-- SIMPLE_LIST_EXTENSIONS -->
<g id="node5" class="node">
<title>SIMPLE_LIST_EXTENSIONS</title>
<path fill="none" stroke="black" d="M217.38,-492.5C217.38,-492.5 51.38,-492.5 51.38,-492.5 45.38,-492.5 39.38,-486.5 39.38,-480.5 39.38,-480.5 39.38,-468.5 39.38,-468.5 39.38,-462.5 45.38,-456.5 51.38,-456.5 51.38,-456.5 217.38,-456.5 217.38,-456.5 223.38,-456.5 229.38,-462.5 229.38,-468.5 229.38,-468.5 229.38,-480.5 229.38,-480.5 229.38,-486.5 223.38,-492.5 217.38,-492.5"/>
<text xml:space="preserve" text-anchor="middle" x="134.38" y="-469.45" font-family="Times New Roman,serif" font-size="14.00">SIMPLE_LIST_EXTENSIONS</text>
</g>
<!-- SIMPLE_LIST_QUERY -->
<g id="node6" class="node">
<title>SIMPLE_LIST_QUERY</title>
<path fill="none" stroke="black" d="M198.62,-564.5C198.62,-564.5 70.12,-564.5 70.12,-564.5 64.12,-564.5 58.12,-558.5 58.12,-552.5 58.12,-552.5 58.12,-540.5 58.12,-540.5 58.12,-534.5 64.12,-528.5 70.12,-528.5 70.12,-528.5 198.62,-528.5 198.62,-528.5 204.62,-528.5 210.62,-534.5 210.62,-540.5 210.62,-540.5 210.62,-552.5 210.62,-552.5 210.62,-558.5 204.62,-564.5 198.62,-564.5"/>
<text xml:space="preserve" text-anchor="middle" x="134.38" y="-541.45" font-family="Times New Roman,serif" font-size="14.00">SIMPLE_LIST_QUERY</text>
</g>
<!-- SIMPLE_NOT_CONDITION -->
<g id="node7" class="node">
<title>SIMPLE_NOT_CONDITION</title>
<path fill="none" stroke="black" d="M212.88,-204.5C212.88,-204.5 55.88,-204.5 55.88,-204.5 49.88,-204.5 43.88,-198.5 43.88,-192.5 43.88,-192.5 43.88,-180.5 43.88,-180.5 43.88,-174.5 49.88,-168.5 55.88,-168.5 55.88,-168.5 212.88,-168.5 212.88,-168.5 218.88,-168.5 224.88,-174.5 224.88,-180.5 224.88,-180.5 224.88,-192.5 224.88,-192.5 224.88,-198.5 218.88,-204.5 212.88,-204.5"/>
<text xml:space="preserve" text-anchor="middle" x="134.38" y="-181.45" font-family="Times New Roman,serif" font-size="14.00">SIMPLE_NOT_CONDITION</text>
</g>
<!-- SIMPLE_NOT_CONDITION&#45;&gt;SIMPLE_QUERY_CONDITION -->
<g id="edge2" class="edge">
<title>SIMPLE_NOT_CONDITION&#45;&gt;SIMPLE_QUERY_CONDITION</title>
<path fill="none" stroke="black" d="M225.13,-186.5C297.13,-186.5 385.75,-186.5 385.75,-186.5 385.75,-186.5 385.75,-180.44 385.75,-180.44"/>
<polygon fill="none" stroke="black" points="389.25,-180.44 385.75,-170.44 382.25,-180.44 389.25,-180.44"/>
</g>
<!-- SIMPLE_OR_CONDITION -->
<g id="node8" class="node">
<title>SIMPLE_OR_CONDITION</title>
<path fill="none" stroke="black" d="M208.38,-132.5C208.38,-132.5 60.38,-132.5 60.38,-132.5 54.38,-132.5 48.38,-126.5 48.38,-120.5 48.38,-120.5 48.38,-108.5 48.38,-108.5 48.38,-102.5 54.38,-96.5 60.38,-96.5 60.38,-96.5 208.38,-96.5 208.38,-96.5 214.38,-96.5 220.38,-102.5 220.38,-108.5 220.38,-108.5 220.38,-120.5 220.38,-120.5 220.38,-126.5 214.38,-132.5 208.38,-132.5"/>
<text xml:space="preserve" text-anchor="middle" x="134.38" y="-109.45" font-family="Times New Roman,serif" font-size="14.00">SIMPLE_OR_CONDITION</text>
</g>
<!-- SIMPLE_OR_CONDITION&#45;&gt;SIMPLE_QUERY_CONDITION -->
<g id="edge3" class="edge">
<title>SIMPLE_OR_CONDITION&#45;&gt;SIMPLE_QUERY_CONDITION</title>
<path fill="none" stroke="black" d="M134.75,-132.56C134.75,-143.94 134.75,-156.5 134.75,-156.5 134.75,-156.5 365.04,-156.5 365.04,-156.5"/>
<polygon fill="none" stroke="black" points="365.04,-160 375.04,-156.5 365.04,-153 365.04,-160"/>
</g>
<!-- SIMPLE_PREDICATE_CONDITION -->
<g id="node9" class="node">
<title>SIMPLE_PREDICATE_CONDITION</title>
<path fill="none" stroke="black" d="M235.38,-60.5C235.38,-60.5 33.38,-60.5 33.38,-60.5 27.38,-60.5 21.38,-54.5 21.38,-48.5 21.38,-48.5 21.38,-36.5 21.38,-36.5 21.38,-30.5 27.38,-24.5 33.38,-24.5 33.38,-24.5 235.38,-24.5 235.38,-24.5 241.38,-24.5 247.38,-30.5 247.38,-36.5 247.38,-36.5 247.38,-48.5 247.38,-48.5 247.38,-54.5 241.38,-60.5 235.38,-60.5"/>
<text xml:space="preserve" text-anchor="middle" x="134.38" y="-37.45" font-family="Times New Roman,serif" font-size="14.00">SIMPLE_PREDICATE_CONDITION</text>
</g>
<!-- SIMPLE_PREDICATE_CONDITION&#45;&gt;SIMPLE_QUERY_CONDITION -->
<g id="edge4" class="edge">
<title>SIMPLE_PREDICATE_CONDITION&#45;&gt;SIMPLE_QUERY_CONDITION</title>
<path fill="none" stroke="black" d="M236.75,-60.74C236.75,-90.07 236.75,-144.5 236.75,-144.5 236.75,-144.5 364.9,-144.5 364.9,-144.5"/>
<polygon fill="none" stroke="black" points="364.9,-148 374.9,-144.5 364.9,-141 364.9,-148"/>
</g>
<!-- SIMPLE_SET_OPERATIONS -->
<g id="node10" class="node">
<title>SIMPLE_SET_OPERATIONS</title>
<path fill="none" stroke="black" d="M214.75,-636.5C214.75,-636.5 54,-636.5 54,-636.5 48,-636.5 42,-630.5 42,-624.5 42,-624.5 42,-612.5 42,-612.5 42,-606.5 48,-600.5 54,-600.5 54,-600.5 214.75,-600.5 214.75,-600.5 220.75,-600.5 226.75,-606.5 226.75,-612.5 226.75,-612.5 226.75,-624.5 226.75,-624.5 226.75,-630.5 220.75,-636.5 214.75,-636.5"/>
<text xml:space="preserve" text-anchor="middle" x="134.38" y="-613.45" font-family="Times New Roman,serif" font-size="14.00">SIMPLE_SET_OPERATIONS</text>
</g>
<!-- SIMPLE_SLICE -->
<g id="node11" class="node">
<title>SIMPLE_SLICE</title>
<path fill="none" stroke="black" d="M176.88,-708.5C176.88,-708.5 91.88,-708.5 91.88,-708.5 85.88,-708.5 79.88,-702.5 79.88,-696.5 79.88,-696.5 79.88,-684.5 79.88,-684.5 79.88,-678.5 85.88,-672.5 91.88,-672.5 91.88,-672.5 176.88,-672.5 176.88,-672.5 182.88,-672.5 188.88,-678.5 188.88,-684.5 188.88,-684.5 188.88,-696.5 188.88,-696.5 188.88,-702.5 182.88,-708.5 176.88,-708.5"/>
<text xml:space="preserve" text-anchor="middle" x="134.38" y="-685.45" font-family="Times New Roman,serif" font-size="14.00">SIMPLE_SLICE</text>
</g>
<!-- ITERABLE -->
<g id="node12" class="node">
<title>ITERABLE</title>
<path fill="none" stroke="black" d="M504.88,-708.5C504.88,-708.5 447.62,-708.5 447.62,-708.5 441.62,-708.5 435.62,-702.5 435.62,-696.5 435.62,-696.5 435.62,-684.5 435.62,-684.5 435.62,-678.5 441.62,-672.5 447.62,-672.5 447.62,-672.5 504.88,-672.5 504.88,-672.5 510.88,-672.5 516.88,-678.5 516.88,-684.5 516.88,-684.5 516.88,-696.5 516.88,-696.5 516.88,-702.5 510.88,-708.5 504.88,-708.5"/>
<text xml:space="preserve" text-anchor="middle" x="476.25" y="-685.45" font-family="Times New Roman,serif" font-size="14.00">ITERABLE</text>
</g>
<!-- SIMPLE_SLICE&#45;&gt;ITERABLE -->
<g id="edge5" class="edge">
<title>SIMPLE_SLICE&#45;&gt;ITERABLE</title>
<path fill="none" stroke="black" d="M189.3,-690.5C189.3,-690.5 423.64,-690.5 423.64,-690.5"/>
<polygon fill="none" stroke="black" points="423.64,-694 433.64,-690.5 423.64,-687 423.64,-694"/>
</g>
<!-- SIMPLE_SLICE_CURSOR -->
<g id="node13" class="node">
<title>SIMPLE_SLICE_CURSOR</title>
<path fill="none" stroke="black" d="M207.25,-780.5C207.25,-780.5 61.5,-780.5 61.5,-780.5 55.5,-780.5 49.5,-774.5 49.5,-768.5 49.5,-768.5 49.5,-756.5 49.5,-756.5 49.5,-750.5 55.5,-744.5 61.5,-744.5 61.5,-744.5 207.25,-744.5 207.25,-744.5 213.25,-744.5 219.25,-750.5 219.25,-756.5 219.25,-756.5 219.25,-768.5 219.25,-768.5 219.25,-774.5 213.25,-780.5 207.25,-780.5"/>
<text xml:space="preserve" text-anchor="middle" x="134.38" y="-757.45" font-family="Times New Roman,serif" font-size="14.00">SIMPLE_SLICE_CURSOR</text>
</g>
<!-- ITERATION_CURSOR -->
<g id="node14" class="node">
<title>ITERATION_CURSOR</title>
<path fill="none" stroke="black" d="M537.88,-780.5C537.88,-780.5 414.62,-780.5 414.62,-780.5 408.62,-780.5 402.62,-774.5 402.62,-768.5 402.62,-768.5 402.62,-756.5 402.62,-756.5 402.62,-750.5 408.62,-744.5 414.62,-744.5 414.62,-744.5 537.88,-744.5 537.88,-744.5 543.88,-744.5 549.88,-750.5 549.88,-756.5 549.88,-756.5 549.88,-768.5 549.88,-768.5 549.88,-774.5 543.88,-780.5 537.88,-780.5"/>
<text xml:space="preserve" text-anchor="middle" x="476.25" y="-757.45" font-family="Times New Roman,serif" font-size="14.00">ITERATION_CURSOR</text>
</g>
<!-- SIMPLE_SLICE_CURSOR&#45;&gt;ITERATION_CURSOR -->
<g id="edge6" class="edge">
<title>SIMPLE_SLICE_CURSOR&#45;&gt;ITERATION_CURSOR</title>
<path fill="none" stroke="black" d="M219.32,-762.5C219.32,-762.5 390.68,-762.5 390.68,-762.5"/>
<polygon fill="none" stroke="black" points="390.68,-766 400.68,-762.5 390.68,-759 390.68,-766"/>
</g>
<!-- SIMPLE_SORTABLE_LIST_EXTENSIONS -->
<g id="node15" class="node">
<title>SIMPLE_SORTABLE_LIST_EXTENSIONS</title>
<path fill="none" stroke="black" d="M254.88,-852.5C254.88,-852.5 13.88,-852.5 13.88,-852.5 7.88,-852.5 1.88,-846.5 1.88,-840.5 1.88,-840.5 1.88,-828.5 1.88,-828.5 1.88,-822.5 7.88,-816.5 13.88,-816.5 13.88,-816.5 254.88,-816.5 254.88,-816.5 260.88,-816.5 266.88,-822.5 266.88,-828.5 266.88,-828.5 266.88,-840.5 266.88,-840.5 266.88,-846.5 260.88,-852.5 254.88,-852.5"/>
<text xml:space="preserve" text-anchor="middle" x="134.38" y="-829.45" font-family="Times New Roman,serif" font-size="14.00">SIMPLE_SORTABLE_LIST_EXTENSIONS</text>
</g>
<!-- SIMPLE_STRING_CONVERSIONS -->
<g id="node16" class="node">
<title>SIMPLE_STRING_CONVERSIONS</title>
<path fill="none" stroke="black" d="M233.12,-924.5C233.12,-924.5 35.62,-924.5 35.62,-924.5 29.62,-924.5 23.62,-918.5 23.62,-912.5 23.62,-912.5 23.62,-900.5 23.62,-900.5 23.62,-894.5 29.62,-888.5 35.62,-888.5 35.62,-888.5 233.12,-888.5 233.12,-888.5 239.12,-888.5 245.12,-894.5 245.12,-900.5 245.12,-900.5 245.12,-912.5 245.12,-912.5 245.12,-918.5 239.12,-924.5 233.12,-924.5"/>
<text xml:space="preserve" text-anchor="middle" x="134.38" y="-901.45" font-family="Times New Roman,serif" font-size="14.00">SIMPLE_STRING_CONVERSIONS</text>
</g>
<!-- ADVERSARIAL_TESTS -->
<g id="node17" class="node">
<title>ADVERSARIAL_TESTS</title>
<path fill="none" stroke="black" d="M201.25,-996.5C201.25,-996.5 67.5,-996.5 67.5,-996.5 61.5,-996.5 55.5,-990.5 55.5,-984.5 55.5,-984.5 55.5,-972.5 55.5,-972.5 55.5,-966.5 61.5,-960.5 67.5,-960.5 67.5,-960.5 201.25,-960.5 201.25,-960.5 207.25,-960.5 213.25,-966.5 213.25,-972.5 213.25,-972.5 213.25,-984.5 213.25,-984.5 213.25,-990.5 207.25,-996.5 201.25,-996.5"/>
<text xml:space="preserve" text-anchor="middle" x="134.38" y="-973.45" font-family="Times New Roman,serif" font-size="14.00">ADVERSARIAL_TESTS</text>
</g>
<!-- LIB_TESTS -->
<g id="node18" class="node">
<title>LIB_TESTS</title>
<path fill="none" stroke="black" d="M164.5,-1068.5C164.5,-1068.5 104.25,-1068.5 104.25,-1068.5 98.25,-1068.5 92.25,-1062.5 92.25,-1056.5 92.25,-1056.5 92.25,-1044.5 92.25,-1044.5 92.25,-1038.5 98.25,-1032.5 104.25,-1032.5 104.25,-1032.5 164.5,-1032.5 164.5,-1032.5 170.5,-1032.5 176.5,-1038.5 176.5,-1044.5 176.5,-1044.5 176.5,-1056.5 176.5,-1056.5 176.5,-1062.5 170.5,-1068.5 164.5,-1068.5"/>
<text xml:space="preserve" text-anchor="middle" x="134.38" y="-1045.45" font-family="Times New Roman,serif" font-size="14.00">LIB_TESTS</text>
</g>
<!-- ANY -->
<g id="node19" class="node">
<title>ANY</title>
<path fill="none" stroke="black" d="M491.25,-1068.5C491.25,-1068.5 461.25,-1068.5 461.25,-1068.5 455.25,-1068.5 449.25,-1062.5 449.25,-1056.5 449.25,-1056.5 449.25,-1044.5 449.25,-1044.5 449.25,-1038.5 455.25,-1032.5 461.25,-1032.5 461.25,-1032.5 491.25,-1032.5 491.25,-1032.5 497.25,-1032.5 503.25,-1038.5 503.25,-1044.5 503.25,-1044.5 503.25,-1056.5 503.25,-1056.5 503.25,-1062.5 497.25,-1068.5 491.25,-1068.5"/>
<text xml:space="preserve" text-anchor="middle" x="476.25" y="-1045.45" font-family="Times New Roman,serif" font-size="14.00">ANY</text>
</g>
<!-- LIB_TESTS&#45;&gt;ANY -->
<g id="edge7" class="edge">
<title>LIB_TESTS&#45;&gt;ANY</title>
<path fill="none" stroke="black" d="M176.98,-1050.5C176.98,-1050.5 437.43,-1050.5 437.43,-1050.5"/>
<polygon fill="none" stroke="black" points="437.43,-1054 447.43,-1050.5 437.43,-1047 437.43,-1054"/>
</g>
<!-- TEST_APP -->
<g id="node20" class="node">
<title>TEST_APP</title>
<path fill="none" stroke="black" d="M162.25,-1140.5C162.25,-1140.5 106.5,-1140.5 106.5,-1140.5 100.5,-1140.5 94.5,-1134.5 94.5,-1128.5 94.5,-1128.5 94.5,-1116.5 94.5,-1116.5 94.5,-1110.5 100.5,-1104.5 106.5,-1104.5 106.5,-1104.5 162.25,-1104.5 162.25,-1104.5 168.25,-1104.5 174.25,-1110.5 174.25,-1116.5 174.25,-1116.5 174.25,-1128.5 174.25,-1128.5 174.25,-1134.5 168.25,-1140.5 162.25,-1140.5"/>
<text xml:space="preserve" text-anchor="middle" x="134.38" y="-1117.45" font-family="Times New Roman,serif" font-size="14.00">TEST_APP</text>
</g>
</g>
</svg>
