<?xml version="1.0" encoding="UTF-8" standalone="no"?>
<!DOCTYPE svg PUBLIC "-//W3C//DTD SVG 1.1//EN"
 "http://www.w3.org/Graphics/SVG/1.1/DTD/svg11.dtd">
<!-- Generated by graphviz version 14.1.1 (20251213.1925)
 -->
<!-- Title: Dependencies Pages: 1 -->
<svg width="352pt" height="285pt"
 viewBox="0.00 0.00 352.00 285.00" xmlns="http://www.w3.org/2000/svg" xmlns:xlink="http://www.w3.org/1999/xlink">
<g id="graph0" class="graph" transform="scale(1 1) rotate(0) translate(4 280.5)">
<title>Dependencies</title>
<polygon fill="white" stroke="none" points="-4,4 -4,-280.5 348,-280.5 348,4 -4,4"/>
<text xml:space="preserve" text-anchor="middle" x="172" y="-7.2" font-family="Times New Roman,serif" font-size="14.00">simple_container &#45; Dependencies</text>
<!-- simple_container -->
<g id="node1" class="node">
<title>simple_container</title>
<polygon fill="lightblue" stroke="black" points="109.75,-168.5 0,-168.5 0,-132.5 109.75,-132.5 109.75,-168.5"/>
<text xml:space="preserve" text-anchor="middle" x="54.88" y="-145.45" font-family="Times New Roman,serif" font-size="14.00">simple_container</text>
</g>
<!-- simple_mml -->
<g id="node2" class="node">
<title>simple_mml</title>
<polygon fill="lightblue" stroke="black" points="341.75,-276.5 256,-276.5 256,-240.5 341.75,-240.5 341.75,-276.5"/>
<text xml:space="preserve" text-anchor="middle" x="298.88" y="-253.45" font-family="Times New Roman,serif" font-size="14.00">simple_mml</text>
</g>
<!-- simple_container&#45;&gt;simple_mml -->
<g id="edge1" class="edge">
<title>simple_container&#45;&gt;simple_mml</title>
<path fill="none" stroke="black" stroke-dasharray="5,2" d="M55,-168.82C55,-199.63 55,-258.5 55,-258.5 55,-258.5 244.04,-258.5 244.04,-258.5"/>
<polygon fill="black" stroke="black" points="244.04,-262 254.04,-258.5 244.04,-255 244.04,-262"/>
</g>
<!-- simple_sorter -->
<g id="node3" class="node">
<title>simple_sorter</title>
<polygon fill="lightblue" stroke="black" points="344,-204.5 253.75,-204.5 253.75,-168.5 344,-168.5 344,-204.5"/>
<text xml:space="preserve" text-anchor="middle" x="298.88" y="-181.45" font-family="Times New Roman,serif" font-size="14.00">simple_sorter</text>
</g>
<!-- simple_container&#45;&gt;simple_sorter -->
<g id="edge2" class="edge">
<title>simple_container&#45;&gt;simple_sorter</title>
<path fill="none" stroke="black" stroke-dasharray="5,2" d="M110.1,-156.5C171.76,-156.5 263,-156.5 263,-156.5 263,-156.5 263,-157.65 263,-157.65"/>
<polygon fill="black" stroke="black" points="259.5,-156.5 263,-166.5 266.5,-156.5 259.5,-156.5"/>
</g>
<!-- base -->
<g id="node4" class="node">
<title>base</title>
<polygon fill="lightgray" stroke="black" points="325.88,-132.5 271.88,-132.5 271.88,-96.5 325.88,-96.5 325.88,-132.5"/>
<text xml:space="preserve" text-anchor="middle" x="298.88" y="-109.45" font-family="Times New Roman,serif" font-size="14.00">base</text>
</g>
<!-- simple_container&#45;&gt;base -->
<g id="edge3" class="edge">
<title>simple_container&#45;&gt;base</title>
<path fill="none" stroke="black" stroke-dasharray="5,2" d="M109.97,-144.5C181.97,-144.5 299,-144.5 299,-144.5 299,-144.5 299,-143.35 299,-143.35"/>
<polygon fill="black" stroke="black" points="302.5,-144.5 299,-134.5 295.5,-144.5 302.5,-144.5"/>
</g>
<!-- testing -->
<g id="node5" class="node">
<title>testing</title>
<polygon fill="lightgray" stroke="black" points="325.88,-60.5 271.88,-60.5 271.88,-24.5 325.88,-24.5 325.88,-60.5"/>
<text xml:space="preserve" text-anchor="middle" x="298.88" y="-37.45" font-family="Times New Roman,serif" font-size="14.00">testing</text>
</g>
<!-- simple_container&#45;&gt;testing -->
<g id="edge4" class="edge">
<title>simple_container&#45;&gt;testing</title>
<path fill="none" stroke="black" stroke-dasharray="5,2" d="M55,-132.18C55,-101.37 55,-42.5 55,-42.5 55,-42.5 260.33,-42.5 260.33,-42.5"/>
<polygon fill="black" stroke="black" points="260.33,-46 270.33,-42.5 260.33,-39 260.33,-46"/>
</g>
</g>
</svg>
